<svg width="88" height="33" viewBox="0 0 88 33" fill="none" xmlns="http://www.w3.org/2000/svg">
<path d="M43.8722 18.1262C43.8722 20.3838 43.0759 21.4462 41.3505 21.4462C39.6251 21.4462 38.8288 20.3838 38.8288 18.1262V11.8845H36.5725V18.3918C36.5725 21.7118 38.2979 23.5711 41.3505 23.5711C44.4031 23.5711 46.1285 21.7118 46.1285 18.3918V11.8845H43.8722V18.1262Z" fill="white"/>
<path d="M56.7462 17.4622C56.7462 20.251 55.0208 21.4462 53.1627 21.4462C50.9064 21.4462 49.7119 19.4542 49.7119 17.4622C49.7119 14.8061 51.4373 13.4781 53.1627 13.4781C55.2862 13.4781 56.7462 15.2045 56.7462 17.4622ZM53.6936 11.4861C52.1009 11.4861 50.7737 12.2829 49.8446 13.6109V11.8845H47.5884V28.352H49.8446V21.7118C50.7737 23.0399 52.1009 23.7039 53.5609 23.7039C55.1535 23.7039 56.6134 23.0399 57.5425 21.8447C58.4715 20.7822 59.0024 19.1886 59.0024 17.595C59.0024 16.0014 58.4715 14.5405 57.5425 13.4781C56.6134 12.1501 55.1535 11.4861 53.6936 11.4861Z" fill="white"/>
<path d="M25.0257 12.0173C24.3621 11.6189 23.8312 11.4861 23.1676 11.4861C21.8404 11.4861 20.6459 12.2829 20.115 13.4781V11.7517H17.8588V23.1727H20.115V17.595C20.115 15.7358 20.3805 13.7437 22.6367 13.7437C23.0349 13.7437 23.3003 13.7437 23.5658 13.8765L25.0257 12.0173Z" fill="white"/>
<path d="M14.2753 11.7517V13.6109C13.3463 12.2829 12.0191 11.4861 10.4264 11.4861C8.83375 11.4861 7.50654 12.1501 6.57749 13.3453C5.64844 14.4077 5.11755 15.8686 5.11755 17.4622C5.11755 19.0558 5.64844 20.6494 6.57749 21.7118C7.50654 22.9071 8.96648 23.5711 10.5591 23.5711C12.0191 23.5711 13.3463 22.7743 14.2753 21.5791V23.3055C14.2753 25.2975 13.8772 27.2895 11.09 27.2895C9.0992 27.2895 7.77198 26.0943 7.77198 24.2351V24.1023H5.64844V24.2351C5.64844 27.2895 7.9047 29.4144 11.09 29.4144C16.0007 29.4144 16.6643 25.8287 16.6643 22.6415V11.8845H14.2753V11.7517ZM10.8246 21.4462C8.56831 21.4462 7.37382 19.4542 7.37382 17.4622C7.37382 14.8061 9.0992 13.4781 10.8246 13.4781C12.9481 13.4781 14.4081 15.0717 14.4081 17.4622C14.2753 20.251 12.55 21.4462 10.8246 21.4462Z" fill="white"/>
<path d="M79.707 16.3998C78.6452 16.7982 77.5834 17.0638 76.7871 17.0638C76.1235 17.0638 75.7253 16.931 75.4599 16.5326C75.1945 16.1342 75.1945 15.603 75.3272 14.8061L75.9908 11.8845C76.2562 10.4237 76.1235 9.36126 75.5926 8.69725C75.0617 8.03324 74.2654 7.76762 73.2036 7.76762C72.0091 7.76762 70.9474 8.16602 69.8856 9.09564C69.4874 8.29883 68.5584 7.76762 67.3639 7.76762C66.3021 7.76762 65.3731 8.16603 64.444 8.83004C64.0459 8.16603 62.9841 7.63483 61.7896 7.63483C61.2587 7.63483 60.5951 7.76762 60.0642 7.90043H59.9315L59.5333 10.0253L60.0642 9.75965C60.8605 9.49405 61.5241 9.49405 61.7896 9.75965C62.055 10.0253 62.055 10.4237 61.9223 10.9549L60.4624 17.1966H62.9841L64.0459 12.8141C64.5767 10.6893 65.5058 9.62686 66.833 9.62686C67.2312 9.62686 67.4966 9.75967 67.6293 10.0253C67.8948 10.2909 67.8948 10.8221 67.7621 11.6189L66.4348 17.1966H68.9565L70.151 12.0173C70.4165 10.6893 71.611 9.62686 72.8055 9.62686C73.2036 9.62686 73.4691 9.75967 73.6018 10.0253C73.8672 10.2909 73.8672 10.8221 73.7345 11.6189L73.0709 14.8061C72.8055 16.1342 72.9382 17.1966 73.6018 17.8606C74.2654 18.6574 75.3272 19.0558 76.6544 19.0558C77.7162 19.0558 78.9107 18.7902 80.1052 18.259L80.2379 18.1262L80.7688 15.7358L79.707 16.3998Z" fill="white"/>
<path d="M35.2454 15.0717C34.9799 14.2749 34.5818 13.7437 34.0509 13.2125C33.52 12.6813 32.9891 12.2829 32.1928 12.0173C31.5292 11.7517 30.6001 11.6189 29.6711 11.6189C28.742 11.6189 27.9457 11.7517 27.1494 12.0173C26.4858 12.2829 25.8221 12.6813 25.2913 13.2125C24.7604 13.7437 24.3622 14.4077 24.0968 15.0717C23.8313 15.8685 23.6986 16.6654 23.6986 17.4622C23.6986 18.3918 23.8313 19.1886 24.0968 19.9854C24.3622 20.7822 24.7604 21.3134 25.2913 21.8446C25.8221 22.3759 26.353 22.7742 27.1494 23.0399C27.813 23.3055 28.742 23.4383 29.6711 23.4383C30.6001 23.4383 31.3964 23.3055 32.1928 23.0399C32.8564 22.7742 33.52 22.3759 34.0509 21.8446C34.5818 21.3134 34.9799 20.6494 35.2454 19.9854C35.5108 19.1886 35.6435 18.3918 35.6435 17.4622C35.6435 16.6654 35.5108 15.7357 35.2454 15.0717ZM31.3964 21.3134C30.9983 21.579 30.4674 21.7118 29.8038 21.7118C29.2729 21.7118 28.742 21.579 28.2111 21.3134C27.813 21.0478 27.4148 20.7822 27.1494 20.3838C26.8839 19.9854 26.6185 19.587 26.4858 19.0558C26.353 18.5246 26.353 17.9934 26.353 17.4622C26.353 16.931 26.353 16.3998 26.4858 16.0014C26.6185 15.4702 26.8839 15.0718 27.1494 14.6733C27.4148 14.2749 27.813 14.0093 28.2111 13.7437C28.6093 13.4781 29.1402 13.3453 29.8038 13.3453C30.3347 13.3453 30.8656 13.4781 31.3964 13.7437C31.7946 14.0093 32.1928 14.2749 32.4582 14.6733C32.7237 15.0718 32.9891 15.4702 33.1218 16.0014C33.2545 16.5326 33.2545 17.0638 33.2545 17.4622C33.2545 17.9934 33.2545 18.5246 33.1218 19.0558C32.9891 19.587 32.7237 19.9854 32.4582 20.3838C32.1928 20.7822 31.7946 21.1806 31.3964 21.3134Z" fill="white"/>
</svg>
