<svg width="103" height="22" viewBox="0 0 103 22" fill="none" xmlns="http://www.w3.org/2000/svg">
<path d="M23.3225 14.9695H20.0045V6.86852L17.8809 15.1023H15.6246L13.5011 6.86852V15.1023H10.8467V3.68127H15.4919L17.0846 9.79017L18.6772 3.68127H23.3225V14.9695Z" fill="white"/>
<path d="M32.8784 14.9695H24.2515V3.54846H32.8784V6.2045H27.7022V7.93094H31.8166V10.4542H27.7022V12.3134H32.8784V14.9695Z" fill="white"/>
<path d="M33.6748 3.54846H37.9219C39.5146 3.54846 40.8418 3.81407 42.169 5.00929C43.3635 6.20451 43.8944 7.66532 43.8944 9.39174C43.8944 10.8526 43.3635 12.4462 42.3017 13.5086C41.1072 14.7038 39.78 15.1022 38.1873 15.1022H33.6748V3.54846ZM37.6565 12.4462C38.1873 12.4462 38.4528 12.4462 38.8509 12.1806C39.1164 12.0478 39.3818 11.7822 39.6473 11.3838C40.0455 10.7198 40.1782 9.92295 40.1782 9.12614C40.1782 8.32933 39.9127 7.39971 39.5146 6.7357C38.9837 6.07169 38.4528 6.07169 37.6565 6.07169H37.2583V12.3134H37.6565V12.4462Z" fill="white"/>
<path d="M48.0086 14.9695H44.4252V3.54846H48.0086V14.9695Z" fill="white"/>
<path d="M55.1756 12.7118H52.123L51.4594 14.9695H48.5396L52.123 3.54846H55.8392L59.4227 14.9695H55.8392L55.1756 12.7118ZM54.6447 10.3214L53.7157 7.00133L52.7866 10.3214H54.6447Z" fill="white"/>
<path d="M68.7132 10.8526C68.4478 13.5086 66.5896 15.235 63.9352 15.235C60.4844 15.235 58.6263 12.7118 58.6263 9.52455C58.6263 6.2045 60.219 3.41565 63.8025 3.41565C66.7224 3.41565 68.4477 5.14208 68.5805 8.06372L65.2624 8.19653C65.2624 7.26692 64.8643 6.07169 63.8025 6.07169C62.2098 6.07169 62.2098 8.46214 62.2098 9.52455C62.2098 10.7198 62.3426 12.579 63.8025 12.579C64.8643 12.579 65.2624 11.6494 65.3952 10.7198L68.7132 10.8526Z" fill="white"/>
<path d="M80.1272 9.39174C80.1272 12.7118 78.1364 15.235 74.6856 15.235C71.2349 15.235 69.244 12.579 69.244 9.39174C69.244 5.93889 71.2349 3.41565 74.6856 3.41565C78.1364 3.41565 80.1272 5.93889 80.1272 9.39174ZM72.9602 9.39174C72.9602 10.4542 73.093 12.579 74.6856 12.579C76.2783 12.579 76.411 10.4542 76.411 9.39174C76.411 8.32933 76.2783 6.07169 74.6856 6.07169C73.093 5.93889 72.9602 8.19652 72.9602 9.39174Z" fill="white"/>
<path d="M93.1339 14.9695H89.8158V6.86852L87.6923 15.1023H85.4361L83.3125 6.86852V15.1023H80.6581V3.68127H85.3033L86.896 9.79017L88.4886 3.68127H93.1339V14.9695Z" fill="white"/>
</svg>
