<svg width="129" height="46" viewBox="0 0 129 46" fill="none" xmlns="http://www.w3.org/2000/svg">
<path d="M38.3461 43.2112C38.2134 43.2112 37.9479 43.0784 37.6825 42.68L37.0189 40.8207H32.9045L32.2409 42.68C32.1082 43.0784 31.8427 43.2112 31.5773 43.2112C31.3118 43.2112 30.9137 42.9456 30.9137 42.5472C30.9137 42.4144 30.9137 42.2816 31.0464 42.1488L34.2317 34.1806C34.4972 33.5166 34.7626 33.5166 35.0281 33.5166C35.2935 33.5166 35.559 33.6494 35.8244 34.1806L39.0097 42.1488C39.1424 42.2816 39.1424 42.4144 39.1424 42.5472C39.0097 42.9456 38.6115 43.2112 38.3461 43.2112ZM36.488 39.4927L34.8953 35.243L33.3027 39.4927H36.488ZM46.0439 34.579C46.1766 34.4462 46.1766 34.1806 46.1766 34.1806C46.1766 33.7822 45.9112 33.5166 45.513 33.5166C45.2476 33.5166 44.9822 33.6494 44.8494 34.0478L42.0623 41.3519L39.2752 34.0478C39.1424 33.6494 38.877 33.5166 38.6116 33.5166C38.2134 33.5166 37.9479 33.7822 37.9479 34.1806C37.9479 34.3134 37.9479 34.4462 38.0806 34.579L41.1333 42.4144C41.3987 43.0784 41.7968 43.2112 42.0623 43.2112C42.3277 43.2112 42.7259 43.0784 42.9913 42.4144L46.0439 34.579ZM52.5473 38.6959C53.0782 38.6959 53.2109 38.2975 53.2109 38.1647C53.2109 38.0319 53.0782 37.6335 52.5473 37.6335H48.5657V34.8446H52.8127C53.3436 34.8446 53.4763 34.4462 53.4763 34.3134C53.4763 34.1806 53.3436 33.7822 52.8127 33.7822H48.0347C47.5039 33.7822 47.2384 34.0478 47.2384 34.579V42.5472C47.2384 43.0784 47.5039 43.344 48.0347 43.344H52.9455C53.4763 43.344 53.6091 42.9456 53.6091 42.8128C53.6091 42.68 53.4763 42.2816 52.9455 42.2816H48.5657V39.0943H52.5473V38.6959ZM73.65 43.2112C73.5173 43.2112 73.2518 43.0784 72.9864 42.68L72.3228 40.8207H68.2084L67.5448 42.68C67.4121 43.0784 67.1467 43.2112 66.8812 43.2112C66.6158 43.2112 66.2176 42.9456 66.2176 42.5472C66.2176 42.4144 66.2176 42.2816 66.3503 42.1488L69.5356 34.1806C69.8011 33.5166 70.0665 33.5166 70.332 33.5166C70.5974 33.5166 70.8629 33.6494 71.1283 34.1806L74.3136 42.1488C74.4463 42.2816 74.4463 42.4144 74.4463 42.5472C74.3136 42.9456 74.0482 43.2112 73.65 43.2112ZM71.9246 39.4927L70.332 35.243L68.7393 39.4927H71.9246ZM64.4922 43.2112C64.7577 43.2112 65.1558 43.0784 65.1558 42.4144V34.3134C65.1558 33.5166 64.625 33.3838 64.3595 33.3838C64.0941 33.3838 63.6959 33.5166 63.4304 34.1806L60.2451 41.3519L57.0598 34.1806C56.7944 33.5166 56.3962 33.3838 56.1308 33.3838C55.8653 33.3838 55.3344 33.5166 55.3344 34.3134V42.4144C55.3344 43.0784 55.7326 43.0784 55.998 43.0784C56.2635 43.0784 56.6616 42.9456 56.6616 42.4144V36.3055L59.4488 42.5472C59.7142 43.0784 59.9797 43.2112 60.2451 43.2112C60.5106 43.2112 60.776 43.0784 61.0415 42.5472L63.8286 36.1726V42.4144C63.8286 43.0784 64.2268 43.2112 64.4922 43.2112ZM82.6751 42.5472C82.6751 42.4144 82.6751 42.1487 82.4096 42.0159L78.2953 38.0319L82.1442 34.7118C82.4096 34.4462 82.4096 34.3134 82.4096 34.1806C82.4096 33.7822 82.1442 33.6494 81.746 33.6494C81.6133 33.6494 81.3478 33.7822 81.2151 33.915L76.8353 37.8991V34.1806C76.8353 33.5166 76.4372 33.3838 76.1717 33.3838C75.9063 33.3838 75.5081 33.5166 75.5081 34.1806V42.4144C75.5081 43.0784 75.9063 43.2112 76.1717 43.2112C76.4372 43.2112 76.8353 43.0784 76.8353 42.4144V38.1647L81.4806 42.9456C81.6133 43.2112 81.8787 43.2112 82.0114 43.2112C82.4096 43.2112 82.6751 42.8128 82.6751 42.5472ZM89.3111 38.6959C89.842 38.6959 89.9747 38.2975 89.9747 38.1647C89.9747 38.0319 89.842 37.6335 89.3111 37.6335H85.3295V34.8446H89.5766C90.1075 34.8446 90.2402 34.4462 90.2402 34.3134C90.2402 34.1806 90.1075 33.7822 89.5766 33.7822H84.7986C84.2677 33.7822 84.0023 34.0478 84.0023 34.579V42.5472C84.0023 43.0784 84.2677 43.344 84.7986 43.344H89.7093C90.2402 43.344 90.3729 42.9456 90.3729 42.8128C90.3729 42.68 90.2402 42.2816 89.7093 42.2816H85.3295V39.0943H89.3111V38.6959ZM94.62 38.8287H93.16V42.4144C93.16 43.0784 92.7619 43.2112 92.4964 43.2112C92.231 43.2112 91.8328 43.0784 91.8328 42.4144V34.3134C91.8328 33.7822 92.0983 33.5166 92.6292 33.5166H94.8854C96.7435 33.5166 98.2035 34.1806 98.2035 36.1726C98.2035 37.5007 97.2744 38.4303 95.9472 38.6959L98.2035 42.0159C98.3362 42.1487 98.3362 42.4144 98.3362 42.4144C98.3362 42.8128 98.0708 43.0784 97.6726 43.0784C97.5399 43.0784 97.2744 42.9456 97.1417 42.68L94.62 38.8287ZM93.16 37.6335H94.7527C95.9472 37.6335 97.009 37.2351 97.009 36.0398C97.009 34.8446 96.0799 34.579 94.8854 34.579H93.2928V37.6335H93.16ZM31.4446 33.5166C31.0464 33.3838 30.6483 33.5166 30.5155 33.915L27.8611 41.0863L26.003 33.915C25.8703 33.6494 25.6048 33.3838 25.3394 33.3838C25.074 33.3838 24.8085 33.5166 24.6758 33.915L22.8177 41.0863L20.1632 33.915C20.0305 33.5166 19.6324 33.3838 19.2342 33.5166C18.836 33.6494 18.7033 34.0478 18.836 34.4462L21.8886 42.5472C22.0214 42.8128 22.1541 42.9456 22.4195 43.0784C22.9504 43.2112 23.4813 43.0784 23.614 42.5472V42.4144L25.2067 36.1726L26.7993 42.4144V42.5472C26.932 43.0784 27.5957 43.344 27.9938 43.0784C28.2593 42.9456 28.392 42.8128 28.5247 42.5472L31.5773 34.4462C31.9755 34.0478 31.8427 33.6494 31.4446 33.5166Z" fill="white"/>
<path d="M71.7918 28.6033C71.6591 28.6033 71.5264 28.6033 71.3937 28.6033C70.8628 28.6033 70.3319 28.2049 70.1992 27.6737L68.3411 21.8304L66.483 27.6737C66.3503 28.2049 65.8193 27.6737 65.2884 27.6737C64.7576 27.6737 64.2267 28.2049 64.094 27.6737L62.2359 21.8304L60.3778 27.6737C60.245 28.2049 59.7142 28.6033 59.1833 28.6033C59.0506 28.6033 58.9178 28.6033 58.7851 28.6033C58.1215 28.3377 57.7233 27.6737 57.9887 27.0097L61.0414 17.5808C61.1741 17.0495 61.705 17.5808 62.2359 17.5808C62.7668 17.5808 63.2976 17.0495 63.4304 17.5808L65.2884 23.424L67.1466 17.5808C67.2793 17.0495 67.8102 17.5808 68.3411 17.5808C68.872 17.5808 69.4028 17.0495 69.5356 17.5808L72.5881 27.0097C72.8536 27.6737 72.4555 28.3377 71.7918 28.6033ZM58.3869 16.7839C58.2542 16.7839 58.1215 16.7839 57.9887 16.7839C57.4579 16.7839 56.927 17.1824 56.7943 17.7136L54.9362 23.5568L53.0781 17.7136C52.9453 17.1824 52.4145 17.7136 51.8836 17.7136C51.3527 17.7136 50.8218 17.1824 50.6891 17.7136L48.831 23.5568L46.9729 17.7136C46.8401 17.1824 46.3093 16.7839 45.7784 16.7839C45.6456 16.7839 45.5129 16.7839 45.3802 16.7839C44.7166 17.0495 44.3184 17.7136 44.5839 18.3776L47.6365 27.8065C47.7692 28.3377 48.3001 27.8065 48.831 27.8065C49.3618 27.8065 49.8927 28.3377 50.0254 27.8065L51.8836 21.9632L53.7417 27.8065C53.8744 28.3377 54.4053 27.8065 54.9362 27.8065C55.4671 27.8065 55.9979 28.3377 56.1307 27.8065L59.1833 18.3776C59.4487 17.7136 59.0505 16.9167 58.3869 16.7839Z" fill="white"/>
<path d="M68.341 16.6508C68.8718 16.6508 69.4027 17.0492 69.5354 17.5804C69.6682 17.846 69.6682 18.1116 69.5354 18.3772L68.341 21.9629L67.1465 18.3772C67.0138 18.1116 67.0138 17.846 67.1465 17.5804C67.2792 17.0492 67.8101 16.6508 68.341 16.6508ZM60.9086 17.5804C60.7758 17.846 60.7758 18.1116 60.9086 18.3772L62.103 21.9629L63.2975 18.3772C63.4302 18.1116 63.4302 17.846 63.2975 17.5804C63.1648 17.0492 62.6339 16.6508 62.103 16.6508C61.5722 16.6508 61.0413 17.0492 60.9086 17.5804ZM54.9361 28.603C55.467 28.603 55.9979 28.2046 56.1306 27.6734C56.2633 27.4078 56.2633 27.1421 56.1306 26.8765L54.9361 23.2909L53.7416 26.8765C53.6089 27.1421 53.6089 27.4078 53.7416 27.6734C53.8743 28.2046 54.4052 28.603 54.9361 28.603ZM48.6982 28.603C49.2291 28.603 49.76 28.2046 49.8927 27.6734C50.0254 27.4078 50.0254 27.1421 49.8927 26.8765L48.6982 23.2909L47.5037 26.8765C47.371 27.1421 47.371 27.4078 47.5037 27.6734C47.7692 28.2046 48.1673 28.603 48.6982 28.603Z" fill="white"/>
<path d="M51.8837 16.6508C52.4145 16.6508 52.9454 17.0492 53.0781 17.5804C53.2109 17.846 53.2109 18.1116 53.0781 18.3772L51.8837 21.9629L50.6891 18.3772C50.5564 18.1116 50.5564 17.846 50.6891 17.5804C50.8219 17.0492 51.3528 16.6508 51.8837 16.6508ZM65.2885 28.603C65.8193 28.603 66.3503 28.2046 66.483 27.6734C66.6157 27.4078 66.6157 27.1421 66.483 26.8765L65.2885 23.2909L64.094 26.8765C63.9613 27.1421 63.9613 27.4078 64.094 27.6734C64.2267 28.2046 64.6249 28.603 65.2885 28.603Z" fill="white"/>
</svg>
